{"title":"Tropa de Elite.2007.x264.AC3(5.1).Nordic_Sub.mkv","uid":5441613,"size":1697976828,"categoryP":"video","categoryS":"movies","magnet":"?xt=urn:btih:7448feef980b46f6d651343b3b90c2e176fb03a6&amp;dn=Tropa+de+Elite.2007.x264.AC3%285.1%29.Nordic_Sub.mkv&amp;tr=udp%3A%2F%2Ftracker.openbittorrent.com%3A80&amp;tr=udp%3A%2F%2Fopen.demonii.com%3A1337&amp;tr=udp%3A%2F%2Ftracker.coppersurfer.tk%3A6969&amp;tr=udp%3A%2F%2Fexodus.desync.com%3A6969","seeders":0,"leechers":1,"uploader":"Zen_Bud","files":-1,"time":1268900933,"description":"General\nComplete name                    : Tropa de Elite .mkv\nFormat                           : Matroska\nFile size                        : 1.58 GiB\nDuration                         : 1h 50mn\nOverall bit rate                 : 2 048 Kbps\nWriting application              : HandBrake 0.9.4\n\nVideo\nID                               : 1\nFormat                           : AVC\nDuration                         : 1h 50mn\nBit rate                         : 1 559 Kbps\nNominal bit rate                 : 1 572 Kbps\nWidth                            : 702 pixels\nHeight                           : 552 pixels\nDisplay aspect ratio             : 16:9\nResolution                       : 8 bits\nColorimetry                      : 4:2:0\nScan type                        : Progressive\nBits/(Pixel*Frame)               : 0.161\nStream size                      : 1.20 GiB (76%)\nWriting library                  : x264 core 79\n\nAudio\nID                               : 2\nFormat                           : AC-3\nFormat/Info                      : Audio Coding 3\nCodec ID                         : A_AC3\nDuration                         : 1h 50mn\nBit rate mode                    : Constant\nBit rate                         : 448 Kbps\nChannel(s)                       : 6 channels\nChannel positions                : Front: L C R, Side: L R, LFE\nSampling rate                    : 48.0 KHz\nStream size                      : 354 MiB (22%)\nLanguage                         : Portuguese\n\nText #1\nLanguage                         : Swedish\n\nText #2\nLanguage                         : Norwegian\n\nText #3\nLanguage                         : Danish\n\nText #4\nLanguage                         : Finnish\n\nMenu\n00:00:00.000                     : Chapter 01\n\n","torrent":{"xt":"urn:btih:7448feef980b46f6d651343b3b90c2e176fb03a6","amp;dn":"Tropa+de+Elite.2007.x264.AC3%285.1%29.Nordic_Sub.mkv","amp;tr":["udp%3A%2F%2Ftracker.openbittorrent.com%3A80","udp%3A%2F%2Fopen.demonii.com%3A1337","udp%3A%2F%2Ftracker.coppersurfer.tk%3A6969","udp%3A%2F%2Fexodus.desync.com%3A6969"],"infoHash":"7448feef980b46f6d651343b3b90c2e176fb03a6","infoHashBuffer":{"type":"Buffer","data":[116,72,254,239,152,11,70,246,214,81,52,59,59,144,194,225,118,251,3,166]},"announce":[],"urlList":[]}}